<svg width="120" height="50" viewBox="0 0 120 50" fill="none" xmlns="http://www.w3.org/2000/svg">
<path d="M8.66344 23.64H15.4034V26.16H8.66344V23.64ZM8.90344 29.4H16.5234V32H5.68344V18H16.2634V20.6H8.90344V29.4ZM18.8814 32V17.16H22.0014V32H18.8814ZM30.237 32.16C29.0104 32.16 27.9304 31.92 26.997 31.44C26.077 30.96 25.3637 30.3067 24.857 29.48C24.3504 28.64 24.097 27.6867 24.097 26.62C24.097 25.54 24.3437 24.5867 24.837 23.76C25.3437 22.92 26.0304 22.2667 26.897 21.8C27.7637 21.32 28.7437 21.08 29.837 21.08C30.8904 21.08 31.837 21.3067 32.677 21.76C33.5304 22.2 34.2037 22.84 34.697 23.68C35.1904 24.5067 35.437 25.5 35.437 26.66C35.437 26.78 35.4304 26.92 35.417 27.08C35.4037 27.2267 35.3904 27.3667 35.377 27.5H26.637V25.68H33.737L32.537 26.22C32.537 25.66 32.4237 25.1733 32.197 24.76C31.9704 24.3467 31.657 24.0267 31.257 23.8C30.857 23.56 30.3904 23.44 29.857 23.44C29.3237 23.44 28.8504 23.56 28.437 23.8C28.037 24.0267 27.7237 24.3533 27.497 24.78C27.2704 25.1933 27.157 25.6867 27.157 26.26V26.74C27.157 27.3267 27.2837 27.8467 27.537 28.3C27.8037 28.74 28.1704 29.08 28.637 29.32C29.117 29.5467 29.677 29.66 30.317 29.66C30.8904 29.66 31.3904 29.5733 31.817 29.4C32.257 29.2267 32.657 28.9667 33.017 28.62L34.677 30.42C34.1837 30.98 33.5637 31.4133 32.817 31.72C32.0704 32.0133 31.2104 32.16 30.237 32.16ZM42.7142 32.16C41.5542 32.16 40.5209 31.9267 39.6142 31.46C38.7076 30.98 37.9942 30.32 37.4742 29.48C36.9676 28.64 36.7142 27.6867 36.7142 26.62C36.7142 25.54 36.9676 24.5867 37.4742 23.76C37.9942 22.92 38.7076 22.2667 39.6142 21.8C40.5209 21.32 41.5542 21.08 42.7142 21.08C43.8476 21.08 44.8342 21.32 45.6742 21.8C46.5142 22.2667 47.1342 22.94 47.5342 23.82L45.1142 25.12C44.8342 24.6133 44.4809 24.24 44.0542 24C43.6409 23.76 43.1876 23.64 42.6942 23.64C42.1609 23.64 41.6809 23.76 41.2542 24C40.8276 24.24 40.4876 24.58 40.2342 25.02C39.9942 25.46 39.8742 25.9933 39.8742 26.62C39.8742 27.2467 39.9942 27.78 40.2342 28.22C40.4876 28.66 40.8276 29 41.2542 29.24C41.6809 29.48 42.1609 29.6 42.6942 29.6C43.1876 29.6 43.6409 29.4867 44.0542 29.26C44.4809 29.02 44.8342 28.64 45.1142 28.12L47.5342 29.44C47.1342 30.3067 46.5142 30.98 45.6742 31.46C44.8342 31.9267 43.8476 32.16 42.7142 32.16ZM53.8869 32.16C52.6202 32.16 51.6335 31.84 50.9269 31.2C50.2202 30.5467 49.8669 29.58 49.8669 28.3V18.86H52.9869V28.26C52.9869 28.7133 53.1069 29.0667 53.3469 29.32C53.5869 29.56 53.9135 29.68 54.3269 29.68C54.8202 29.68 55.2402 29.5467 55.5869 29.28L56.4269 31.48C56.1069 31.7067 55.7202 31.88 55.2669 32C54.8269 32.1067 54.3669 32.16 53.8869 32.16ZM48.2069 23.88V21.48H55.6669V23.88H48.2069ZM68.6623 32.24C67.5423 32.24 66.469 32.0933 65.4423 31.8C64.4157 31.4933 63.589 31.1 62.9623 30.62L64.0623 28.18C64.6623 28.6067 65.369 28.96 66.1823 29.24C67.009 29.5067 67.8423 29.64 68.6823 29.64C69.3223 29.64 69.8357 29.58 70.2223 29.46C70.6223 29.3267 70.9157 29.1467 71.1023 28.92C71.289 28.6933 71.3823 28.4333 71.3823 28.14C71.3823 27.7667 71.2357 27.4733 70.9423 27.26C70.649 27.0333 70.2623 26.8533 69.7823 26.72C69.3023 26.5733 68.769 26.44 68.1823 26.32C67.609 26.1867 67.029 26.0267 66.4423 25.84C65.869 25.6533 65.3423 25.4133 64.8623 25.12C64.3823 24.8267 63.989 24.44 63.6823 23.96C63.389 23.48 63.2423 22.8667 63.2423 22.12C63.2423 21.32 63.4557 20.5933 63.8823 19.94C64.3223 19.2733 64.9757 18.7467 65.8423 18.36C66.7223 17.96 67.8223 17.76 69.1423 17.76C70.0223 17.76 70.889 17.8667 71.7423 18.08C72.5957 18.28 73.349 18.5867 74.0023 19L73.0023 21.46C72.349 21.0867 71.6957 20.8133 71.0423 20.64C70.389 20.4533 69.749 20.36 69.1223 20.36C68.4957 20.36 67.9823 20.4333 67.5823 20.58C67.1823 20.7267 66.8957 20.92 66.7223 21.16C66.549 21.3867 66.4623 21.6533 66.4623 21.96C66.4623 22.32 66.609 22.6133 66.9023 22.84C67.1957 23.0533 67.5823 23.2267 68.0623 23.36C68.5423 23.4933 69.069 23.6267 69.6423 23.76C70.229 23.8933 70.809 24.0467 71.3823 24.22C71.969 24.3933 72.5023 24.6267 72.9823 24.92C73.4623 25.2133 73.849 25.6 74.1423 26.08C74.449 26.56 74.6023 27.1667 74.6023 27.9C74.6023 28.6867 74.3823 29.4067 73.9423 30.06C73.5023 30.7133 72.8423 31.24 71.9623 31.64C71.0957 32.04 69.9957 32.24 68.6623 32.24ZM83.1363 21.08C83.9896 21.08 84.7496 21.2533 85.4163 21.6C86.0963 21.9333 86.6296 22.4533 87.0163 23.16C87.4029 23.8533 87.5963 24.7467 87.5963 25.84V32H84.4763V26.32C84.4763 25.4533 84.2829 24.8133 83.8963 24.4C83.5229 23.9867 82.9896 23.78 82.2963 23.78C81.8029 23.78 81.3563 23.8867 80.9563 24.1C80.5696 24.3 80.2629 24.6133 80.0363 25.04C79.8229 25.4667 79.7163 26.0133 79.7163 26.68V32H76.5963V17.16H79.7163V24.22L79.0163 23.32C79.4029 22.6 79.9563 22.0467 80.6763 21.66C81.3963 21.2733 82.2163 21.08 83.1363 21.08ZM95.6225 32.16C94.4758 32.16 93.4558 31.92 92.5625 31.44C91.6825 30.96 90.9825 30.3067 90.4625 29.48C89.9558 28.64 89.7025 27.6867 89.7025 26.62C89.7025 25.54 89.9558 24.5867 90.4625 23.76C90.9825 22.92 91.6825 22.2667 92.5625 21.8C93.4558 21.32 94.4758 21.08 95.6225 21.08C96.7558 21.08 97.7692 21.32 98.6625 21.8C99.5558 22.2667 100.256 22.9133 100.763 23.74C101.269 24.5667 101.523 25.5267 101.523 26.62C101.523 27.6867 101.269 28.64 100.763 29.48C100.256 30.3067 99.5558 30.96 98.6625 31.44C97.7692 31.92 96.7558 32.16 95.6225 32.16ZM95.6225 29.6C96.1425 29.6 96.6092 29.48 97.0225 29.24C97.4358 29 97.7625 28.66 98.0025 28.22C98.2425 27.7667 98.3625 27.2333 98.3625 26.62C98.3625 25.9933 98.2425 25.46 98.0025 25.02C97.7625 24.58 97.4358 24.24 97.0225 24C96.6092 23.76 96.1425 23.64 95.6225 23.64C95.1025 23.64 94.6358 23.76 94.2225 24C93.8092 24.24 93.4758 24.58 93.2225 25.02C92.9825 25.46 92.8625 25.9933 92.8625 26.62C92.8625 27.2333 92.9825 27.7667 93.2225 28.22C93.4758 28.66 93.8092 29 94.2225 29.24C94.6358 29.48 95.1025 29.6 95.6225 29.6ZM109.968 32.16C109.061 32.16 108.268 31.96 107.588 31.56C106.908 31.16 106.375 30.5533 105.988 29.74C105.615 28.9133 105.428 27.8733 105.428 26.62C105.428 25.3533 105.608 24.3133 105.968 23.5C106.328 22.6867 106.848 22.08 107.528 21.68C108.208 21.28 109.021 21.08 109.968 21.08C110.981 21.08 111.888 21.3133 112.688 21.78C113.501 22.2333 114.141 22.8733 114.608 23.7C115.088 24.5267 115.328 25.5 115.328 26.62C115.328 27.7533 115.088 28.7333 114.608 29.56C114.141 30.3867 113.501 31.0267 112.688 31.48C111.888 31.9333 110.981 32.16 109.968 32.16ZM103.608 35.88V21.24H106.588V23.44L106.528 26.64L106.728 29.82V35.88H103.608ZM109.428 29.6C109.948 29.6 110.408 29.48 110.808 29.24C111.221 29 111.548 28.66 111.788 28.22C112.041 27.7667 112.168 27.2333 112.168 26.62C112.168 25.9933 112.041 25.46 111.788 25.02C111.548 24.58 111.221 24.24 110.808 24C110.408 23.76 109.948 23.64 109.428 23.64C108.908 23.64 108.441 23.76 108.028 24C107.615 24.24 107.288 24.58 107.048 25.02C106.808 25.46 106.688 25.9933 106.688 26.62C106.688 27.2333 106.808 27.7667 107.048 28.22C107.288 28.66 107.615 29 108.028 29.24C108.441 29.48 108.908 29.6 109.428 29.6Z" fill="#7FAD39"/>
</svg>
